<svg width="245" height="36" viewBox="0 0 245 36" fill="none" xmlns="http://www.w3.org/2000/svg">
<path d="M14 35.4773C11.1591 35.4773 8.72727 34.9148 6.70455 33.7898C4.68182 32.6534 3.13068 31.0739 2.05114 29.0511C0.971591 27.017 0.431818 24.6591 0.431818 21.9773C0.431818 19.2955 0.971591 16.9432 2.05114 14.9205C3.13068 12.8864 4.68182 11.3068 6.70455 10.1818C8.72727 9.04545 11.1591 8.47727 14 8.47727C16.5682 8.47727 18.7898 8.94318 20.6648 9.875C22.5511 10.7955 24.0114 12.1023 25.0455 13.7955C26.0795 15.4773 26.6023 17.4545 26.6136 19.7273H17.8864C17.7614 18.3523 17.3636 17.3068 16.6932 16.5909C16.0341 15.8636 15.1818 15.5 14.1364 15.5C13.3182 15.5 12.6023 15.7386 11.9886 16.2159C11.375 16.6818 10.8977 17.392 10.5568 18.3466C10.2159 19.2898 10.0455 20.4773 10.0455 21.9091C10.0455 23.3409 10.2159 24.5341 10.5568 25.4886C10.8977 26.4318 11.375 27.142 11.9886 27.6193C12.6023 28.0852 13.3182 28.3182 14.1364 28.3182C14.8295 28.3182 15.4432 28.1591 15.9773 27.8409C16.5114 27.5114 16.9432 27.0341 17.2727 26.4091C17.6136 25.7727 17.8182 25 17.8864 24.0909H26.6136C26.5795 26.3977 26.0511 28.4091 25.0284 30.125C24.0057 31.8295 22.5568 33.1477 20.6818 34.0795C18.8182 35.0114 16.5909 35.4773 14 35.4773ZM48.7855 35L38.4901 0.0909081H49.0582L53.831 21.5682H54.1037L59.7628 0.0909081H68.081L73.7401 21.6364H74.0128L78.7855 0.0909081H89.3537L79.0582 35H69.9901L64.0582 15.5H63.7855L57.8537 35H48.7855ZM92.4219 35V0.0909081H117.581V7.72727H101.899V13.7273H116.286V21.3636H101.899V27.3636H117.513V35H92.4219ZM122.281 35V0.0909081H131.759V27.3636H145.872V35H122.281ZM149.703 35V0.0909081H164.839C167.499 0.0909081 169.732 0.448863 171.538 1.16477C173.357 1.88068 174.726 2.89204 175.646 4.19886C176.578 5.50568 177.044 7.04545 177.044 8.81818C177.044 10.1023 176.76 11.2727 176.192 12.3295C175.635 13.3864 174.851 14.2727 173.839 14.9886C172.828 15.6932 171.646 16.1818 170.294 16.4545V16.7955C171.794 16.8523 173.158 17.233 174.385 17.9375C175.612 18.6307 176.589 19.5909 177.317 20.8182C178.044 22.0341 178.408 23.4659 178.408 25.1136C178.408 27.0227 177.908 28.7216 176.908 30.2102C175.919 31.6989 174.51 32.8693 172.68 33.7216C170.851 34.5739 168.669 35 166.135 35H149.703ZM159.18 27.4318H163.612C165.203 27.4318 166.396 27.1364 167.192 26.5455C167.987 25.9432 168.385 25.0568 168.385 23.8864C168.385 23.0682 168.197 22.375 167.822 21.8068C167.447 21.2386 166.913 20.8068 166.22 20.5114C165.538 20.2159 164.714 20.0682 163.749 20.0682H159.18V27.4318ZM159.18 14.2045H163.067C163.896 14.2045 164.629 14.0739 165.266 13.8125C165.902 13.5511 166.396 13.1761 166.749 12.6875C167.112 12.1875 167.294 11.5795 167.294 10.8636C167.294 9.78409 166.908 8.96023 166.135 8.39205C165.362 7.8125 164.385 7.52273 163.203 7.52273H159.18V14.2045ZM181.766 35V0.0909081H206.925V7.72727H191.243V13.7273H205.629V21.3636H191.243V27.3636H206.857V35H181.766ZM221.784 0.0909081L227.511 10.25H227.784L233.58 0.0909081H244.148L233.716 17.5455L244.557 35H233.716L227.784 24.6364H227.511L221.58 35H210.807L221.511 17.5455L211.148 0.0909081H221.784Z" fill="#E4E5EA"/>
<path d="M14 35.4773C11.1591 35.4773 8.72727 34.9148 6.70455 33.7898C4.68182 32.6534 3.13068 31.0739 2.05114 29.0511C0.971591 27.017 0.431818 24.6591 0.431818 21.9773C0.431818 19.2955 0.971591 16.9432 2.05114 14.9205C3.13068 12.8864 4.68182 11.3068 6.70455 10.1818C8.72727 9.04545 11.1591 8.47727 14 8.47727C16.5682 8.47727 18.7898 8.94318 20.6648 9.875C22.5511 10.7955 24.0114 12.1023 25.0455 13.7955C26.0795 15.4773 26.6023 17.4545 26.6136 19.7273H17.8864C17.7614 18.3523 17.3636 17.3068 16.6932 16.5909C16.0341 15.8636 15.1818 15.5 14.1364 15.5C13.3182 15.5 12.6023 15.7386 11.9886 16.2159C11.375 16.6818 10.8977 17.392 10.5568 18.3466C10.2159 19.2898 10.0455 20.4773 10.0455 21.9091C10.0455 23.3409 10.2159 24.5341 10.5568 25.4886C10.8977 26.4318 11.375 27.142 11.9886 27.6193C12.6023 28.0852 13.3182 28.3182 14.1364 28.3182C14.8295 28.3182 15.4432 28.1591 15.9773 27.8409C16.5114 27.5114 16.9432 27.0341 17.2727 26.4091C17.6136 25.7727 17.8182 25 17.8864 24.0909H26.6136C26.5795 26.3977 26.0511 28.4091 25.0284 30.125C24.0057 31.8295 22.5568 33.1477 20.6818 34.0795C18.8182 35.0114 16.5909 35.4773 14 35.4773ZM48.7855 35L38.4901 0.0909081H49.0582L53.831 21.5682H54.1037L59.7628 0.0909081H68.081L73.7401 21.6364H74.0128L78.7855 0.0909081H89.3537L79.0582 35H69.9901L64.0582 15.5H63.7855L57.8537 35H48.7855ZM92.4219 35V0.0909081H117.581V7.72727H101.899V13.7273H116.286V21.3636H101.899V27.3636H117.513V35H92.4219ZM122.281 35V0.0909081H131.759V27.3636H145.872V35H122.281ZM149.703 35V0.0909081H164.839C167.499 0.0909081 169.732 0.448863 171.538 1.16477C173.357 1.88068 174.726 2.89204 175.646 4.19886C176.578 5.50568 177.044 7.04545 177.044 8.81818C177.044 10.1023 176.76 11.2727 176.192 12.3295C175.635 13.3864 174.851 14.2727 173.839 14.9886C172.828 15.6932 171.646 16.1818 170.294 16.4545V16.7955C171.794 16.8523 173.158 17.233 174.385 17.9375C175.612 18.6307 176.589 19.5909 177.317 20.8182C178.044 22.0341 178.408 23.4659 178.408 25.1136C178.408 27.0227 177.908 28.7216 176.908 30.2102C175.919 31.6989 174.51 32.8693 172.68 33.7216C170.851 34.5739 168.669 35 166.135 35H149.703ZM159.18 27.4318H163.612C165.203 27.4318 166.396 27.1364 167.192 26.5455C167.987 25.9432 168.385 25.0568 168.385 23.8864C168.385 23.0682 168.197 22.375 167.822 21.8068C167.447 21.2386 166.913 20.8068 166.22 20.5114C165.538 20.2159 164.714 20.0682 163.749 20.0682H159.18V27.4318ZM159.18 14.2045H163.067C163.896 14.2045 164.629 14.0739 165.266 13.8125C165.902 13.5511 166.396 13.1761 166.749 12.6875C167.112 12.1875 167.294 11.5795 167.294 10.8636C167.294 9.78409 166.908 8.96023 166.135 8.39205C165.362 7.8125 164.385 7.52273 163.203 7.52273H159.18V14.2045ZM181.766 35V0.0909081H206.925V7.72727H191.243V13.7273H205.629V21.3636H191.243V27.3636H206.857V35H181.766ZM221.784 0.0909081L227.511 10.25H227.784L233.58 0.0909081H244.148L233.716 17.5455L244.557 35H233.716L227.784 24.6364H227.511L221.58 35H210.807L221.511 17.5455L211.148 0.0909081H221.784Z" fill="url(#paint0_linear_0_25)"/>
<defs>
<linearGradient id="paint0_linear_0_25" x1="-10.0999" y1="-0.455087" x2="300.789" y2="45.7279" gradientUnits="userSpaceOnUse">
<stop offset="0.242073" stop-color="#FCB045"/>
<stop offset="1" stop-color="#FF3F78"/>
</linearGradient>
</defs>
</svg>
